<?xml version="1.0" standalone="no"?>
<!DOCTYPE svg PUBLIC "-//W3C//DTD SVG 20010904//EN"
 "http://www.w3.org/TR/2001/REC-SVG-20010904/DTD/svg10.dtd">
<svg version="1.0" xmlns="http://www.w3.org/2000/svg"
 width="400.000000pt" height="400.000000pt" viewBox="0 0 400.000000 400.000000"
 preserveAspectRatio="xMidYMid meet">

<g transform="translate(0.000000,400.000000) scale(0.100000,-0.100000)"
fill="#000000" stroke="none">
<path d="M2985 3541 c-3 -5 -2 -12 3 -15 5 -3 9 1 9 9 0 17 -3 19 -12 6z"/>
<path d="M3043 3540 c2 -8 12 -16 23 -17 13 -2 15 -1 4 4 -8 3 -19 11 -23 17
-6 7 -7 6 -4 -4z"/>
<path d="M3095 3482 c-11 -9 -19 -26 -17 -37 1 -11 -6 -30 -18 -42 -11 -12
-20 -31 -20 -41 0 -10 -9 -27 -20 -37 -11 -10 -20 -22 -20 -27 0 -5 -16 -26
-35 -46 -19 -20 -35 -44 -35 -53 0 -18 -45 -106 -66 -130 -8 -8 -14 -23 -14
-33 0 -20 -24 -60 -62 -101 -15 -16 -28 -39 -28 -51 0 -11 -9 -30 -20 -42 -11
-12 -20 -30 -20 -40 0 -10 -9 -27 -20 -37 -11 -10 -20 -22 -20 -27 0 -5 -16
-26 -35 -46 -19 -20 -35 -44 -35 -53 0 -28 -101 -198 -122 -207 -4 -2 -8 -14
-8 -26 0 -13 -9 -31 -20 -41 -11 -10 -20 -22 -20 -27 0 -5 -9 -18 -20 -30 -10
-12 -16 -26 -13 -31 4 -6 0 -8 -11 -4 -16 6 -16 5 -1 -16 8 -12 20 -23 25 -23
6 -1 15 -2 21 -3 5 0 7 -6 3 -12 -5 -8 -9 -8 -14 1 -5 8 -10 8 -14 2 -3 -5 1
-13 10 -16 9 -3 14 -13 10 -21 -5 -14 9 -30 28 -30 5 0 11 -11 12 -25 2 -14 6
-40 10 -59 4 -22 2 -36 -6 -41 -13 -8 -60 10 -60 23 0 10 -47 29 -82 34 -23 3
-32 -3 -55 -39 -15 -24 -40 -56 -55 -73 -16 -16 -28 -39 -28 -51 0 -11 -9 -30
-20 -42 -11 -12 -20 -30 -20 -40 0 -10 -9 -27 -20 -37 -11 -10 -20 -22 -20
-27 0 -5 -16 -26 -35 -46 -19 -20 -35 -46 -35 -57 0 -11 -7 -29 -15 -39 -8
-11 -15 -28 -15 -38 0 -10 -4 -18 -10 -18 -5 0 -10 -7 -10 -15 0 -9 -11 -27
-25 -41 -35 -35 -60 -84 -43 -84 7 -1 0 -12 -17 -25 -16 -14 -36 -23 -44 -20
-10 4 -9 -1 4 -15 16 -17 16 -20 2 -20 -9 0 -18 -4 -22 -9 -3 -6 6 -7 23 -2
21 6 29 5 29 -4 0 -8 -7 -11 -16 -7 -14 5 -14 3 -2 -11 7 -9 18 -14 24 -10 6
4 7 1 2 -6 -5 -9 -10 -10 -18 -2 -6 6 -16 11 -22 11 -5 -1 -1 -9 10 -18 11
-10 21 -24 23 -32 7 -36 34 -80 50 -81 9 0 12 -3 5 -5 -6 -3 -9 -16 -7 -31 8
-44 -36 -53 -77 -16 -30 25 -91 53 -85 38 2 -7 -2 -19 -9 -25 -12 -10 -14 -7
-10 19 2 17 0 29 -5 26 -5 -3 -7 -12 -4 -19 3 -8 -5 -21 -17 -30 -18 -12 -20
-18 -10 -29 9 -12 1 -26 -44 -73 -30 -33 -55 -68 -55 -80 0 -11 -9 -30 -20
-42 -11 -12 -20 -30 -20 -40 0 -10 -9 -27 -20 -37 -11 -10 -20 -22 -20 -27 0
-5 -16 -26 -35 -46 -19 -20 -35 -46 -35 -57 0 -11 -7 -29 -15 -39 -8 -11 -13
-28 -9 -38 3 -11 -4 -27 -19 -42 -13 -13 -34 -43 -46 -66 -12 -23 -35 -56 -51
-73 -17 -18 -30 -41 -30 -53 0 -11 -9 -30 -21 -43 -12 -12 -18 -29 -15 -38 4
-11 2 -14 -9 -9 -12 4 -13 2 -2 -14 6 -11 15 -20 20 -20 4 0 6 -4 3 -8 -3 -5
14 -16 37 -26 23 -10 51 -21 62 -26 46 -20 183 -58 270 -75 61 -12 193 -26
300 -31 191 -9 563 54 670 113 17 10 32 17 35 16 3 -1 20 5 39 13 18 8 36 14
39 14 9 0 185 92 227 118 22 14 42 24 43 23 2 -2 16 8 30 21 15 14 44 35 65
47 20 13 37 27 37 32 0 4 15 16 32 25 74 38 306 298 410 459 92 142 206 399
213 476 0 8 6 28 12 45 6 16 21 80 33 143 32 168 32 510 1 668 -34 171 -111
413 -141 443 -3 3 -6 12 -8 20 -5 23 -68 146 -82 160 -3 3 -11 17 -19 33 -8
15 -18 27 -23 27 -4 0 -8 6 -8 14 0 18 -151 210 -202 258 -23 21 -45 35 -51
31 -6 -3 -7 -1 -3 5 8 14 -54 73 -71 67 -7 -2 -10 2 -6 11 4 11 0 15 -13 12
-10 -2 -19 2 -19 7 -1 19 -16 35 -27 29 -7 -4 -8 -2 -4 5 5 7 -4 15 -23 22
-17 6 -28 15 -25 20 9 15 -10 10 -31 -9z m45 -21 c0 -6 -4 -12 -8 -15 -5 -3
-9 1 -9 9 0 8 4 15 9 15 4 0 8 -4 8 -9z m-557 -1553 c19 -29 47 -75 61 -103
15 -27 56 -97 92 -155 36 -58 72 -120 81 -138 9 -19 22 -36 30 -39 7 -3 11 -9
8 -13 -3 -4 7 -24 20 -45 14 -20 37 -59 50 -86 14 -27 30 -49 36 -49 5 0 8 -4
5 -8 -3 -5 9 -31 27 -58 18 -27 32 -56 31 -64 -2 -35 -5 -40 -17 -40 -11 0
-94 50 -167 100 -14 9 -63 31 -109 49 -73 28 -98 33 -185 34 -82 2 -115 -3
-178 -22 -42 -14 -75 -27 -73 -31 2 -3 -4 -6 -14 -7 -10 -1 -41 -15 -68 -32
-28 -17 -55 -31 -62 -31 -6 0 -11 -4 -11 -9 0 -5 -9 -13 -20 -16 -11 -4 -18
-10 -15 -15 8 -13 -46 -22 -60 -10 -11 9 -11 17 -2 38 6 15 14 29 17 32 11 9
55 105 55 120 1 8 6 14 13 13 6 -2 23 18 37 45 28 52 35 64 82 139 18 29 33
56 33 61 0 4 7 17 15 27 35 46 63 94 57 99 -3 3 -1 6 4 6 5 0 21 21 34 48 14
26 28 48 32 50 4 2 4 10 1 19 -4 10 -2 14 3 10 6 -3 16 10 23 29 7 18 17 34
23 34 6 0 9 3 5 6 -8 8 43 64 59 64 6 0 28 -24 47 -52z m-318 -336 c-3 -3 -11
0 -18 7 -9 10 -8 11 6 5 10 -3 15 -9 12 -12z m-447 -437 c-28 -14 -35 -11 -17
8 8 8 20 12 27 9 9 -3 6 -8 -10 -17z"/>
<path d="M2340 2390 c-9 -6 -10 -10 -3 -10 6 0 15 5 18 10 8 12 4 12 -15 0z"/>
<path d="M2360 2372 c0 -4 5 -13 12 -20 15 -15 19 -42 7 -42 -5 0 -9 6 -9 14
0 7 -7 19 -16 27 -12 10 -12 6 3 -21 26 -45 41 -49 38 -8 -2 18 -8 34 -14 36
-6 2 -9 8 -5 13 3 5 0 9 -5 9 -6 0 -11 -4 -11 -8z"/>
<path d="M2244 2123 c-1 -16 1 -23 3 -16 2 7 11 9 19 6 12 -4 12 -8 -3 -20
-16 -13 -16 -13 5 -3 12 6 27 8 32 5 6 -3 10 -1 10 4 0 6 -5 11 -11 11 -5 0
-7 4 -4 10 3 6 -1 7 -10 4 -9 -4 -21 0 -28 10 -10 14 -12 13 -13 -11z"/>
<path d="M1790 1482 c-13 -14 -12 -15 2 -10 8 4 21 1 27 -5 6 -6 11 -8 11 -3
0 4 -6 13 -13 20 -10 11 -15 10 -27 -2z"/>
<path d="M1815 1439 c-10 -15 3 -25 16 -12 7 7 7 13 1 17 -6 3 -14 1 -17 -5z"/>
<path d="M1695 1219 c-4 -6 -4 -13 -1 -16 3 -4 6 -1 6 6 0 7 5 9 12 5 7 -4 8
-3 4 4 -9 15 -13 15 -21 1z"/>
<path d="M1645 1210 c-3 -6 1 -7 9 -4 18 7 21 14 7 14 -6 0 -13 -4 -16 -10z"/>
<path d="M1735 1200 c3 -5 8 -10 11 -10 2 0 4 5 4 10 0 6 -5 10 -11 10 -5 0
-7 -4 -4 -10z"/>
<path d="M1096 358 c3 -5 10 -6 15 -3 13 9 11 12 -6 12 -8 0 -12 -4 -9 -9z"/>
<path d="M1193 307 c-3 -6 -1 -7 5 -3 6 3 13 2 17 -4 4 -6 11 -8 16 -4 6 3 16
-2 24 -12 7 -11 16 -16 20 -12 10 10 -32 43 -56 44 -11 1 -22 -3 -26 -9z"/>
</g>
</svg>
