<svg width="1440" height="691" viewBox="0 0 1440 691" fill="none" xmlns="http://www.w3.org/2000/svg">
<path d="M-13 547L119.065 491.877C144.59 481.223 173.595 482.898 197.725 496.418L275.186 539.82C283.673 544.575 292.874 547.923 302.431 549.733L340.253 556.896C390.959 566.5 443.349 553.877 484.117 522.233L516.504 497.094C522.148 492.714 527.25 487.677 531.703 482.09L590.764 407.981C599.228 397.361 608.865 387.733 619.494 379.281L655.965 350.278C689.849 323.332 732.309 309.501 775.562 311.32L926.73 317.676C962.745 319.19 998.386 309.856 1029.04 290.883L1066.62 267.617C1080.15 259.243 1092.5 249.112 1103.37 237.489L1110.25 230.125C1123.29 216.175 1138.93 204.899 1156.28 196.927C1175.53 188.08 1196.47 183.5 1217.66 183.5H1219.52C1233.44 183.5 1247.3 181.601 1260.7 177.856L1300.94 166.617C1338.79 156.041 1365.98 122.904 1368.96 83.7113C1371.98 44.0664 1399.75 10.6715 1438.18 0.481376L1440 0V691H0L-13 547Z" fill="url(#paint0_linear_61_22805)" fill-opacity="0.4"/>
<defs>
<linearGradient id="paint0_linear_61_22805" x1="184.5" y1="216" x2="1546.5" y2="665.5" gradientUnits="userSpaceOnUse">
<stop offset="0.333333" stop-color="#CFF3FB"/>
<stop offset="0.729167" stop-color="#54ACFD"/>
<stop offset="0.9999" stop-color="#00A3FF"/>
<stop offset="1" stop-color="#64CFFF"/>
</linearGradient>
</defs>
</svg>
